<?xml version="1.0" encoding="utf-8"?>
<!-- Generator: Adobe Illustrator 25.3.1, SVG Export Plug-In . SVG Version: 6.00 Build 0)  -->
<svg version="1.1" id="Layer_1" xmlns="http://www.w3.org/2000/svg" xmlns:xlink="http://www.w3.org/1999/xlink" x="0px" y="0px"
	 viewBox="0 0 1920 1080" style="enable-background:new 0 0 1920 1080;" xml:space="preserve">
<style type="text/css">
	.st0{fill:#FFFFFF;}
	.st1{fill:#048ACB;}
</style>
<path class="st0" d="M438,511.9c3.7,1.9,7.4,4.2,11.1,6.7l4.8,3.3l-0.1-5.9c-0.6-23.6-6.4-46.1-17.2-67l-0.3-0.6l-0.5-0.4
	c-2.8-2.2-5.7-4.3-8.9-6.3l-0.4-0.2H423V458h-36v-43h-2v-5h22.3l-2.4-2.2c-1.9-1.8-3.6-3.3-5.2-4.6l-0.8-0.7h-12v-9.1l-1.3-0.9
	c-1.6-1.1-3.2-2.1-4.8-3.1l-1.8-1.1V405h-5v-3.5h-18.5v-25l-1-0.4c-17.8-7-36.3-10.5-55.1-10.5c-47.7,0-94.1,23.5-124.3,62.7
	l-3.7,4.8h14.5c-6.3,2.6-13.7,6.3-21,11.6l-0.6,0.4l-0.3,0.6c-12,21.9-18.6,46.7-19,71.8l-0.1,5.9l4.8-3.4c4.3-3.1,8.6-5.7,12.9-8
	c-9.8,12.2-13.3,28.8-14.5,38.5l-0.1,0.5l0.1,0.5c5.2,25,16.7,48.6,33.3,68.2l2.8,3.3l2.1-3.7c3.8-6.6,7.3-12.7,10.5-18
	c-1.1,5.5-1.6,11.1-1.5,16.6c0.1,5.3,0.8,10.8,2.3,16.1l0.7,2.3c5.6,17.6,18.6,34.3,39.7,51c15,11.9,28.4,20.2,42.2,26.1
	c7.9,3.4,15.7,7.7,21.1,11.7l1.7,1.3l1.8-1.2c8.7-6.1,17.8-11.7,27.4-17.6c20.1-12.3,40.8-25,58.3-43.1c7.3-7.6,12.5-14.9,15.7-22.3
	c2.6-5.9,4-12.7,4.5-21.2c0.4-5.4,0.4-10.5,0.2-15.4c0-3.8-0.2-7.8-0.9-11.7c2.9,4.8,6.1,10.2,9.5,16.2l2.3,4.1l2.7-3.8
	c13.7-19.1,23.1-41.4,26.9-64.5l0.1-0.5l-0.1-0.5C449.9,534.7,446,521.8,438,511.9z"/>
<path d="M417.2,501.3c12.5,2.2,24.2,8.4,33.6,14.8c-0.6-23.7-6.6-45.9-16.8-65.7c-3.5-2.8-7.1-5.3-10.7-7.4H391v-33h11.9
	c-1.7-1.5-3.4-3.1-5.1-4.5h-13.1c-0.4,0-0.7-0.3-0.7-0.7v-9.8c-1.6-1.1-3.1-2.1-4.7-3.1v8.7c0,0.2-0.2,0.4-0.4,0.4h-22.6
	c-0.2,0-0.4-0.2-0.4-0.4v-20.7c-17.4-7.2-36.4-11.2-56.4-11.2c-50,0-94.3,25.6-121.9,61.6h28.3c0,0-19.9,3.3-39.2,17
	c-11.5,20.9-18.2,44.9-18.6,70.4c9.7-6.9,22.2-13.8,35.6-16.2c-25,6.8-31.1,38.3-32.5,49.6c5.2,25.1,16.7,48,32.6,66.9
	c8-14.2,16.5-28.3,23.3-37.5c-1.2,2.6-2.3,5.2-3.2,7.9c-0.6,1.2-1,2.1-1.1,2.4c-2.9,8.7-4.5,18-4.4,27.2c0.1,5.3,0.8,10.4,2.2,15.3
	l0.7,2.2c6.4,20.1,22.5,36.7,38.7,49.6c12.9,10.2,26.4,19.2,41.6,25.7c7.1,3,15.5,7.4,21.7,12c27.1-19,59.8-34,85.3-60.3
	c6.1-6.3,11.6-13.4,15.1-21.5c2.8-6.4,3.9-13.3,4.3-20.2c0.4-5,0.4-10.1,0.2-15.1c0-5.5-0.3-11-2.1-16.1c-1.2-5.4-2.9-10.5-5.2-15.3
	c6.3,8.5,14,21.2,21.5,34.4c13.3-18.4,22.5-39.9,26.4-63.2C446.2,531.4,438.7,507.2,417.2,501.3z"/>
<path d="M417.2,501.3c12.5,2.2,24.2,8.4,33.6,14.8c-0.6-23.7-6.6-45.9-16.8-65.7c-3.5-2.8-7.1-5.3-10.7-7.4H391v-33h11.9
	c-1.7-1.5-3.4-3.1-5.1-4.5h-13.1c-0.4,0-0.7-0.3-0.7-0.7v-9.8c-1.6-1.1-3.1-2.1-4.7-3.1v8.7c0,0.2-0.2,0.4-0.4,0.4h-22.6
	c-0.2,0-0.4-0.2-0.4-0.4v-20.7c-17.4-7.2-36.4-11.2-56.4-11.2c-50,0-94.3,25.6-121.9,61.6h28.3c0,0-19.9,3.3-39.2,17
	c-11.5,20.9-18.2,44.9-18.6,70.4c9.7-6.9,22.2-13.8,35.6-16.2c-25,6.8-31.1,38.3-32.5,49.6c5.2,25.1,16.7,48,32.6,66.9
	c8-14.2,16.5-28.3,23.3-37.5c-1.2,2.6-2.3,5.2-3.2,7.9c-0.6,1.2-1,2.1-1.1,2.4c-2.9,8.7-4.5,18-4.4,27.2c0.1,5.3,0.8,10.4,2.2,15.3
	l0.7,2.2c6.4,20.1,22.5,36.7,38.7,49.6c12.9,10.2,26.4,19.2,41.6,25.7c7.1,3,15.5,7.4,21.7,12c27.1-19,59.8-34,85.3-60.3
	c6.1-6.3,11.6-13.4,15.1-21.5c2.8-6.4,3.9-13.3,4.3-20.2c0.4-5,0.4-10.1,0.2-15.1c0-5.5-0.3-11-2.1-16.1c-1.2-5.4-2.9-10.5-5.2-15.3
	c6.3,8.5,14,21.2,21.5,34.4c13.3-18.4,22.5-39.9,26.4-63.2C446.2,531.4,438.7,507.2,417.2,501.3z"/>
<path class="st0" d="M595.6,558.6h-45.2v37.3h50.5v19h-72.4V487.9h69.7v19h-47.9v32.8h45.2V558.6z"/>
<path class="st0" d="M724.7,563.1c-0.7-16.4-1.6-36.2-1.4-53.4h-0.5c-3.9,15.5-8.9,32.6-14.2,48.6l-17.6,55.1h-16.7l-16-54.3
	c-4.6-16.2-8.9-33.6-12.1-49.4h-0.4c-0.5,16.6-1.2,36.8-2.1,54.1l-2.7,51.1h-20.5l8-127.1h28.8L673,539c4.3,14.9,8,30,11,44.1h0.5
	c3.2-13.8,7.3-29.4,11.9-44.3l16.5-50.9h28.5l6.9,127.1h-21.3L724.7,563.1z"/>
<path class="st0" d="M774,489.6c8-1.5,18.9-2.6,33.4-2.6c16,0,27.6,3.6,35.2,10.4c7.1,6.2,11.7,16.2,11.7,28.1
	c0,12.1-3.6,21.9-10.1,28.7c-8.9,9.2-22.4,13.8-37.9,13.8c-4.1,0-7.6-0.2-10.7-0.9v48.1H774V489.6z M795.7,548.6
	c2.8,0.9,6.2,1.1,10.7,1.1c16.4,0,26.3-8.7,26.3-23.4c0-14.1-9.3-21.5-24.4-21.5c-6,0-10.3,0.6-12.6,1.1V548.6z"/>
<path class="st0" d="M898.8,487.9v127.1h-21.9V487.9H898.8z"/>
<path class="st0" d="M927.2,489.8c8.4-1.7,20.5-2.8,33.1-2.8c17.3,0,28.8,3,37,10.2c6.6,5.8,10.3,14.7,10.3,25.6
	c0,16.4-10.5,27.5-21.9,31.7v0.6c8.7,3.4,13.9,12.3,16.7,24.5c3.9,15.8,7.1,30.5,9.4,35.4h-22.4c-1.8-3.8-4.8-14.1-8-30
	c-3.6-16.6-9.1-21.9-21.5-22.2h-11v52.2h-21.7V489.8z M948.9,545.8h13c14.8,0,23.8-8.3,23.8-20.9c0-13.8-9.1-20.4-23.3-20.4
	c-6.9,0-11.4,0.6-13.5,1.1V545.8z"/>
<path class="st0" d="M1098.9,558.6h-45.2v37.3h50.5v19h-72.4V487.9h69.7v19h-47.9v32.8h45.2V558.6z"/>
<path class="st1" d="M1126.5,589.7c6.9,4.3,17.8,8.1,29,8.1c13.9,0,21.7-7,21.7-17.3c0-9.6-6-15.3-21.2-21.1
	c-19.9-7.5-32.6-18.7-32.6-37c0-20.9,16.4-36.6,42.5-36.6c13,0,22.4,3,28.6,6.4l-5.2,18.7c-4.4-2.5-12.8-6-24-6
	c-13.9,0-19.7,7.7-19.7,15.3c0,9.8,6.9,14.3,23,20.9c20.8,8.3,30.8,19.4,30.8,37.7c0,20.6-14.6,38.3-45.4,38.3
	c-12.8,0-26-3.8-32.6-8.1L1126.5,589.7z"/>
<path class="st1" d="M1249.8,614.9v-53l-37.9-74.1h25.1l14.2,32.6c4.1,9.4,7.1,16.6,10.5,25.3h0.4c2.8-8.1,6.2-16,10.3-25.3
	l14.4-32.6h24.7l-39.9,73.5v53.5H1249.8z"/>
<path class="st1" d="M1324,589.7c6.9,4.3,17.8,8.1,29,8.1c13.9,0,21.7-7,21.7-17.3c0-9.6-6.1-15.3-21.2-21.1
	c-19.9-7.5-32.6-18.7-32.6-37c0-20.9,16.4-36.6,42.5-36.6c13,0,22.4,3,28.6,6.4l-5.2,18.7c-4.4-2.5-12.8-6-24-6
	c-13.9,0-19.7,7.7-19.7,15.3c0,9.8,6.9,14.3,23,20.9c20.8,8.3,30.8,19.4,30.8,37.7c0,20.6-14.6,38.3-45.4,38.3
	c-12.8,0-26-3.8-32.6-8.1L1324,589.7z"/>
<path class="st1" d="M1443,507.3h-34.2v-19.4h90.6v19.4h-34.5v107.7H1443V507.3z"/>
<path class="st1" d="M1584,558.6h-45.2v37.3h50.5v19h-72.4V487.9h69.7v19h-47.9v32.8h45.2V558.6z"/>
<path class="st1" d="M1713.1,563.1c-0.7-16.4-1.6-36.2-1.4-53.4h-0.5c-3.9,15.5-8.9,32.6-14.2,48.6l-17.6,55.1h-16.7l-16-54.3
	c-4.6-16.2-8.9-33.6-12.1-49.4h-0.4c-0.5,16.6-1.2,36.8-2.1,54.1l-2.7,51.1h-20.5l8-127.1h28.8l15.7,51.1c4.3,14.9,8,30,11,44.1h0.5
	c3.2-13.8,7.3-29.4,11.9-44.3l16.5-50.9h28.5l6.9,127.1h-21.3L1713.1,563.1z"/>
<path class="st1" d="M1762.1,589.7c6.9,4.3,17.8,8.1,29,8.1c13.9,0,21.7-7,21.7-17.3c0-9.6-6.1-15.3-21.2-21.1
	c-19.9-7.5-32.6-18.7-32.6-37c0-20.9,16.4-36.6,42.5-36.6c13,0,22.4,3,28.6,6.4l-5.2,18.7c-4.4-2.5-12.8-6-24-6
	c-13.9,0-19.7,7.7-19.7,15.3c0,9.8,6.9,14.3,23,20.9c20.8,8.3,30.8,19.4,30.8,37.7c0,20.6-14.6,38.3-45.4,38.3
	c-12.8,0-26-3.8-32.6-8.1L1762.1,589.7z"/>
<g>
	<path class="st0" d="M378,441.1h-8.4c0,0-0.1,0-0.1,0.1v8.4c0,0,0,0.1,0.1,0.1h8.4c0,0,0.1,0,0.1-0.1L378,441.1
		C378.1,441.2,378,441.1,378,441.1z"/>
	<path class="st0" d="M328.7,406.1h-8.4c0,0-0.1,0-0.1,0.1v8.4c0,0,0,0.1,0.1,0.1h8.4c0,0,0.1,0,0.1-0.1L328.7,406.1
		C328.7,406.1,328.7,406.1,328.7,406.1z"/>
	<path class="st0" d="M316,389.3h-8.3c0,0-0.1,0-0.1,0.1v8.3c0,0,0,0.1,0.1,0.1h8.3c0,0,0.1,0,0.1-0.1L316,389.3
		C316.1,389.3,316.1,389.3,316,389.3z"/>
	<rect x="298.7" y="405" class="st0" width="14.2" height="14.2"/>
	<path class="st0" d="M422.6,462.5h8.5c0,0,0,0,0,0V454c0,0,0,0,0,0h-8.5c0,0,0,0,0,0L422.6,462.5
		C422.5,462.5,422.5,462.5,422.6,462.5z"/>
	<path class="st0" d="M380.2,427.2v-12.5c0,0,0-0.1-0.1-0.1h-12.5c0,0-0.1,0-0.1,0.1v12.5c0,0,0,0.1,0.1,0.1L380.2,427.2
		C380.1,427.3,380.2,427.3,380.2,427.2z"/>
	<rect x="332" y="380.5" class="st0" width="9.6" height="9.6"/>
	<path class="st0" d="M433.7,473.4h-13.8c0,0-0.1,0-0.1,0.1v13.8c0,0,0,0.1,0.1,0.1h13.8c0,0,0.1,0,0.1-0.1L433.7,473.4
		C433.8,473.4,433.7,473.4,433.7,473.4z"/>
	<rect x="339.6" y="397.6" class="st0" width="12.7" height="12.7"/>
	<rect x="344.2" y="418.5" class="st0" width="8.5" height="8.5"/>
	<rect x="390.4" y="453.7" class="st0" width="22.9" height="22.9"/>
</g>
<g>
	<path class="st1" d="M373.5,382.9h-11.9c-0.2,0-0.4,0.2-0.4,0.4v11.9c0,0.2,0.2,0.4,0.4,0.4h11.9c0.2,0,0.4-0.2,0.4-0.4v-11.9
		C373.9,383,373.7,382.9,373.5,382.9z"/>
	<path class="st1" d="M509.5,380.8h-16.1c-0.2,0-0.4,0.2-0.4,0.4v16.1c0,0.2,0.2,0.4,0.4,0.4h16.1c0.2,0,0.4-0.2,0.4-0.4v-16.1
		C509.9,381,509.7,380.8,509.5,380.8z"/>
	<path class="st1" d="M490.8,370.2H501c0.2,0,0.4-0.2,0.4-0.4v-10.2c0-0.2-0.2-0.4-0.4-0.4h-10.2c-0.2,0-0.4,0.2-0.4,0.4v10.2
		C490.4,370,490.6,370.2,490.8,370.2z"/>
	<path class="st1" d="M529.9,359.2h-10.2c-0.2,0-0.4,0.2-0.4,0.4v10.2c0,0.2,0.2,0.4,0.4,0.4h10.2c0.2,0,0.4-0.2,0.4-0.4v-10.2
		C530.3,359.3,530.1,359.2,529.9,359.2z"/>
	<path class="st1" d="M471.8,343h10.2c0.2,0,0.4-0.2,0.4-0.4v-10.2c0-0.2-0.2-0.4-0.4-0.4h-10.2c-0.2,0-0.4,0.2-0.4,0.4v10.2
		C471.3,342.9,471.5,343,471.8,343z"/>
	<rect x="423" y="395.6" class="st1" width="26.3" height="26.3"/>
	<path class="st1" d="M495.5,406.6h-37.3c-0.2,0-0.4,0.2-0.4,0.4v37.3c0,0.2,0.2,0.4,0.4,0.4h37.3c0.2,0,0.4-0.2,0.4-0.4v-37.3
		C495.9,406.8,495.7,406.6,495.5,406.6z"/>
	<path class="st1" d="M410.3,399v-19.5c0-0.2-0.2-0.4-0.4-0.4h-19.5c-0.2,0-0.4,0.2-0.4,0.4V399c0,0.2,0.2,0.4,0.4,0.4h19.5
		C410.1,399.4,410.3,399.2,410.3,399z"/>
	<path class="st1" d="M384,350.7h-16.1c-0.2,0-0.4,0.2-0.4,0.4v16.1c0,0.2,0.2,0.4,0.4,0.4H384c0.2,0,0.4-0.2,0.4-0.4v-16.1
		C384.4,350.9,384.3,350.7,384,350.7z"/>
	<rect x="396.8" y="417.2" class="st1" width="19.6" height="19.6"/>
	<rect x="426.8" y="425.5" class="st1" width="12.4" height="12.4"/>
	<path class="st1" d="M424.3,385.4H448c0.2,0,0.4-0.2,0.4-0.4v-23.7c0-0.2-0.2-0.4-0.4-0.4h-23.7c-0.2,0-0.4,0.2-0.4,0.4V385
		C423.9,385.3,424.1,385.4,424.3,385.4z"/>
	<path class="st1" d="M485.8,399.9V371c0-0.2-0.2-0.4-0.4-0.4h-28.8c-0.2,0-0.4,0.2-0.4,0.4v28.8c0,0.2,0.2,0.4,0.4,0.4h28.8
		C485.6,400.3,485.8,400.1,485.8,399.9z"/>
</g>
<polygon id="XMLID_12_" class="st1" points="327.5,621.6 303,633.7 278.5,621.6 278.1,610.2 271.1,627.2 303,644.7 335,627.2 
	327.9,610.7 "/>
<path id="XMLID_11_" class="st1" d="M284.5,523.3h0.4l15.7-9.7c1.5-1,3.5-1,5,0l15.6,9.7h0.4l-10.6-29.2c0,0-2.3-6.5,8.3-12.1v0
	c-3.2,2.5-4.3,4.3-4.8,6.7c2.6-2.1,8.2-5.7,18.2-7.5c-7,2.4-11.5,6.9-14.3,11l64.5-16.4c-5.8-17.3-21.9-29-40.2-29l-39.6,22.8
	l-39.6-22.8h0c-18.8,0-35.3,12.3-40.7,30.3l-12.8,43v0l12.9,14.5h0.3v-17.2l-0.3,0c0,0,14.4-8.4,37.7-7.8l0,0v0
	c-16.4,6.7-29.1,27.3-10.1,57.6h0l52.4-33.2h0c0,0-3.6-13.3-17-6.7h0c-7.1,7.5-6.8,19.1-6.8,19.1c0,0-7.4-5.4-0.3-26.3
	c4.6-8.5,8.6-16.7,10.7-23.1l0,0l-28.8,12.5l2.4-6l-40.4-26.4l64.4,15c-2.8-4-7.3-8.6-14.3-11c10.9,2,16.6,6,18.8,8
	c-0.4-2.6-1.6-4.6-4.9-7.2c10.6,5.5,8.3,12,8.3,12L284.5,523.3z"/>
<path id="XMLID_10_" class="st1" d="M396.2,520.2l-12.9-43c-0.1-0.4-0.3-0.9-0.5-1.3l-36.1,25.7h0l-30.2-4.4v0
	c2.1,6.4,6.1,14.5,10.7,23.1c7.1,20.9-0.3,26.3-0.3,26.3c0,0,0.3-11.5-6.8-19.1c-14.7-6.9-17,6.7-17,6.7l52.4,33.2h0
	c18.9-30.3,6.3-50.9-10.1-57.6v0c23.5-0.6,38.3,7.8,38.3,7.8l0.3,0v16.9L396.2,520.2L396.2,520.2z"/>
<path id="XMLID_9_" class="st1" d="M321.4,436c0,0,3.5,1.7,6.5,5.2l-8,3.8L321.4,436z"/>
<path id="XMLID_8_" class="st1" d="M283.5,436c0,0-3.8,1.7-6.8,5.2l8.3,3.8L283.5,436z"/>
<g id="XMLID_6_">
	<polygon id="XMLID_7_" class="st1" points="265.9,590.2 265.9,590.3 266,590 	"/>
</g>
<polygon id="XMLID_5_" class="st1" points="303,542.7 263.1,565.9 269.5,590.1 273.5,565.3 276.1,571.4 303,557.4 329.8,571.4 
	332.5,565.3 336.5,590.3 343,565.9 "/>
<polygon id="XMLID_4_" class="st1" points="341.9,628.2 340.1,636.2 337.6,630.9 303,652.5 268.5,630.9 266,636.2 264.3,628.2 
	264.3,628.2 251.3,575.9 252.5,636.2 303.1,666.4 353.7,636.2 355,575.9 "/>
<polygon id="XMLID_3_" class="st1" points="278.1,610.2 271,627.2 302.9,644.7 302.9,633.6 278.5,621.6 "/>
<polygon id="XMLID_2_" class="st1" points="269.5,590.1 273.5,565.3 276.1,571.4 302.9,557.4 302.9,542.8 263.1,565.9 "/>
<polygon id="XMLID_1_" class="st1" points="268.5,630.9 266,636.2 264.2,628.2 264.3,628.2 251.3,575.9 252.5,636.2 302.9,666.3 
	302.9,652.4 "/>
<polygon class="st1" points="283.3,425.5 289,447.1 302.6,454 316.3,447.1 322,424.4 302.6,438 "/>
<polygon class="st1" points="304.9,441.4 317.5,431.2 315.2,446 312.9,440.3 "/>
<polygon class="st1" points="300.4,441.4 287.8,431.2 290.1,446 292.4,439.2 "/>
<polygon class="st1" points="241.6,427.8 303.1,457.4 364.2,427.9 303.2,463.6 "/>
<path class="st0" d="M595.6,558.6h-45.2v37.3h50.5v19h-72.4V487.9h69.7v19h-47.9v32.8h45.2V558.6z"/>
<path class="st0" d="M724.7,563.1c-0.7-16.4-1.6-36.2-1.4-53.4h-0.5c-3.9,15.5-8.9,32.6-14.2,48.6l-17.6,55.1h-16.7l-16-54.3
	c-4.6-16.2-8.9-33.6-12.1-49.4h-0.4c-0.5,16.6-1.2,36.8-2.1,54.1l-2.7,51.1h-20.5l8-127.1h28.8L673,539c4.3,14.9,8,30,11,44.1h0.5
	c3.2-13.8,7.3-29.4,11.9-44.3l16.5-50.9h28.5l6.9,127.1h-21.3L724.7,563.1z"/>
<path class="st0" d="M774,489.6c8-1.5,18.9-2.6,33.4-2.6c16,0,27.6,3.6,35.2,10.4c7.1,6.2,11.7,16.2,11.7,28.1
	c0,12.1-3.6,21.9-10.1,28.7c-8.9,9.2-22.4,13.8-37.9,13.8c-4.1,0-7.6-0.2-10.7-0.9v48.1H774V489.6z M795.7,548.6
	c2.8,0.9,6.2,1.1,10.7,1.1c16.4,0,26.3-8.7,26.3-23.4c0-14.1-9.3-21.5-24.4-21.5c-6,0-10.3,0.6-12.6,1.1V548.6z"/>
<path class="st0" d="M898.8,487.9v127.1h-21.9V487.9H898.8z"/>
<path class="st0" d="M927.2,489.8c8.4-1.7,20.5-2.8,33.1-2.8c17.3,0,28.8,3,37,10.2c6.6,5.8,10.3,14.7,10.3,25.6
	c0,16.4-10.5,27.5-21.9,31.7v0.6c8.7,3.4,13.9,12.3,16.7,24.5c3.9,15.8,7.1,30.5,9.4,35.4h-22.4c-1.8-3.8-4.8-14.1-8-30
	c-3.6-16.6-9.1-21.9-21.5-22.2h-11v52.2h-21.7V489.8z M948.9,545.8h13c14.8,0,23.8-8.3,23.8-20.9c0-13.8-9.1-20.4-23.3-20.4
	c-6.9,0-11.4,0.6-13.5,1.1V545.8z"/>
<path class="st0" d="M1098.9,558.6h-45.2v37.3h50.5v19h-72.4V487.9h69.7v19h-47.9v32.8h45.2V558.6z"/>
<path class="st1" d="M1126.5,589.7c6.9,4.3,17.8,8.1,29,8.1c13.9,0,21.7-7,21.7-17.3c0-9.6-6-15.3-21.2-21.1
	c-19.9-7.5-32.6-18.7-32.6-37c0-20.9,16.4-36.6,42.5-36.6c13,0,22.4,3,28.6,6.4l-5.2,18.7c-4.4-2.5-12.8-6-24-6
	c-13.9,0-19.7,7.7-19.7,15.3c0,9.8,6.9,14.3,23,20.9c20.8,8.3,30.8,19.4,30.8,37.7c0,20.6-14.6,38.3-45.4,38.3
	c-12.8,0-26-3.8-32.6-8.1L1126.5,589.7z"/>
<path class="st1" d="M1249.8,614.9v-53l-37.9-74.1h25.1l14.2,32.6c4.1,9.4,7.1,16.6,10.5,25.3h0.4c2.8-8.1,6.2-16,10.3-25.3
	l14.4-32.6h24.7l-39.9,73.5v53.5H1249.8z"/>
<path class="st1" d="M1324,589.7c6.9,4.3,17.8,8.1,29,8.1c13.9,0,21.7-7,21.7-17.3c0-9.6-6.1-15.3-21.2-21.1
	c-19.9-7.5-32.6-18.7-32.6-37c0-20.9,16.4-36.6,42.5-36.6c13,0,22.4,3,28.6,6.4l-5.2,18.7c-4.4-2.5-12.8-6-24-6
	c-13.9,0-19.7,7.7-19.7,15.3c0,9.8,6.9,14.3,23,20.9c20.8,8.3,30.8,19.4,30.8,37.7c0,20.6-14.6,38.3-45.4,38.3
	c-12.8,0-26-3.8-32.6-8.1L1324,589.7z"/>
<path class="st1" d="M1443,507.3h-34.2v-19.4h90.6v19.4h-34.5v107.7H1443V507.3z"/>
<path class="st1" d="M1584,558.6h-45.2v37.3h50.5v19h-72.4V487.9h69.7v19h-47.9v32.8h45.2V558.6z"/>
<path class="st1" d="M1713.1,563.1c-0.7-16.4-1.6-36.2-1.4-53.4h-0.5c-3.9,15.5-8.9,32.6-14.2,48.6l-17.6,55.1h-16.7l-16-54.3
	c-4.6-16.2-8.9-33.6-12.1-49.4h-0.4c-0.5,16.6-1.2,36.8-2.1,54.1l-2.7,51.1h-20.5l8-127.1h28.8l15.7,51.1c4.3,14.9,8,30,11,44.1h0.5
	c3.2-13.8,7.3-29.4,11.9-44.3l16.5-50.9h28.5l6.9,127.1h-21.3L1713.1,563.1z"/>
<path class="st1" d="M1762.1,589.7c6.9,4.3,17.8,8.1,29,8.1c13.9,0,21.7-7,21.7-17.3c0-9.6-6.1-15.3-21.2-21.1
	c-19.9-7.5-32.6-18.7-32.6-37c0-20.9,16.4-36.6,42.5-36.6c13,0,22.4,3,28.6,6.4l-5.2,18.7c-4.4-2.5-12.8-6-24-6
	c-13.9,0-19.7,7.7-19.7,15.3c0,9.8,6.9,14.3,23,20.9c20.8,8.3,30.8,19.4,30.8,37.7c0,20.6-14.6,38.3-45.4,38.3
	c-12.8,0-26-3.8-32.6-8.1L1762.1,589.7z"/>
</svg>
