<svg width="655" height="927" viewBox="0 0 655 927" fill="none" xmlns="http://www.w3.org/2000/svg">
<g clip-path="url(#clip0_23_288)">
<rect width="655" height="927" fill="white"/>
<path d="M655.36 0H0V926.86H655.36V0Z" fill="url(#paint0_linear_23_288)"/>
<g opacity="0.23">
<mask id="mask0_23_288" style="mask-type:luminance" maskUnits="userSpaceOnUse" x="2" y="95" width="329" height="763">
<path d="M2.83014 857.16H330.39L330.39 95.04H2.83014L2.83014 857.16Z" fill="white"/>
</mask>
<g mask="url(#mask0_23_288)">
<path d="M-339.13 191.81V217.63C-339.127 220.585 -337.955 223.418 -335.87 225.511C-333.784 227.604 -330.955 228.787 -328 228.8H-315.81C-316.428 230.202 -316.749 231.718 -316.75 233.25V293C-316.747 295.961 -315.569 298.799 -313.475 300.892C-311.38 302.985 -308.541 304.16 -305.58 304.16H-245.79C-244.321 304.164 -242.866 303.878 -241.508 303.319C-240.15 302.76 -238.916 301.939 -237.876 300.903C-236.835 299.866 -236.01 298.634 -235.446 297.278C-234.882 295.922 -234.591 294.469 -234.59 293V267.52H-225.74V293.05H-211.49C-212.15 293.57 -212.87 294.05 -213.49 294.56L-215.21 295.94L-216.21 297.94C-233.884 331.897 -243.528 369.458 -244.4 407.73L-244.9 428.19L-230.37 418.28C-235.27 429.258 -238.823 440.788 -240.95 452.62L-241.29 454.44L-240.98 456.27C-234.525 494.421 -219.422 530.588 -196.83 562L-187.29 575.24L-179.2 561.08C-178.2 559.26 -177.14 557.48 -176.14 555.74C-176.28 562.13 -176.14 569.04 -175.61 576.13C-174.81 590.4 -172.37 601.84 -167.95 611.99C-162.45 624.62 -153.84 636.89 -141.63 649.49C-113.12 678.92 -79.5699 699.49 -47.1299 719.38C-31.7499 728.81 -17.2299 737.72 -3.47989 747.38L2.69012 751.71L8.77011 747.23C17.0201 741.16 29.2301 734.41 41.4401 729.18C64.1201 719.49 86.0401 705.96 110.44 686.6C144 659.9 165.19 633.19 175 605L176.65 603.62L177.39 597.27C179.729 588.684 180.972 579.838 181.09 570.94V569.37C182.317 571.523 183.567 573.717 184.84 575.95L192.24 589.06L202 577.59C229.207 545.438 247.967 507.009 256.58 465.78L256.93 464.08L256.71 462.36C255.4 452 252.27 435 244.78 418.5L245.24 418.84L262.13 430.84L261.81 410.14C261.147 368.966 250.47 328.573 230.7 292.45L229.54 290.34L227.59 289C223.31 286 219.02 283.22 214.8 280.75H225.28L212.28 263.87C162.93 199.49 86.8001 161.08 8.67014 161.08C-23.6919 161.102 -55.7335 167.49 -85.6299 179.88L-92.1199 182.55V184H-110C-112.962 184.003 -115.801 185.18 -117.895 187.275C-119.99 189.369 -121.167 192.208 -121.17 195.17V197.77L-124.76 200.02C-125.16 200.26 -125.54 200.53 -125.93 200.78V189.09C-125.934 187.251 -126.393 185.441 -127.265 183.822C-128.137 182.203 -129.396 180.825 -130.93 179.81C-129.654 180.306 -128.299 180.564 -126.93 180.57H-101.11C-99.64 180.574 -98.1838 180.288 -96.8246 179.729C-95.4654 179.169 -94.2298 178.347 -93.1886 177.31C-92.1474 176.272 -91.3209 175.04 -90.7566 173.682C-90.1923 172.325 -89.9012 170.87 -89.8999 169.4V143.58C-89.9025 140.618 -91.0802 137.779 -93.1744 135.685C-95.2686 133.59 -98.1082 132.413 -101.07 132.41H-126.89C-129.852 132.413 -132.691 133.59 -134.785 135.685C-136.88 137.779 -138.057 140.618 -138.06 143.58V169.4C-138.056 171.239 -137.598 173.049 -136.726 174.668C-135.853 176.287 -134.594 177.666 -133.06 178.68C-134.335 178.182 -135.691 177.924 -137.06 177.92H-168.34C-171.3 177.925 -174.137 179.104 -176.229 181.198C-178.321 183.292 -179.497 186.13 -179.5 189.09V204.42H-182.35C-180.988 202.534 -180.253 200.267 -180.25 197.94V159.88C-180.253 156.918 -181.43 154.079 -183.524 151.985C-185.619 149.89 -188.458 148.713 -191.42 148.71H-229.47C-232.43 148.715 -235.267 149.894 -237.359 151.988C-239.451 154.082 -240.627 156.92 -240.63 159.88V164.61C-241.421 164.434 -242.229 164.343 -243.04 164.34H-286.9V157.16C-286.903 154.199 -288.081 151.361 -290.175 149.268C-292.27 147.175 -295.109 146 -298.07 146H-314.38C-317.34 146.003 -320.178 147.179 -322.272 149.271C-324.366 151.363 -325.545 154.2 -325.55 157.16V173.48C-325.539 176.108 -324.592 178.646 -322.88 180.64H-328C-330.955 180.653 -333.784 181.836 -335.87 183.929C-337.955 186.022 -339.127 188.855 -339.13 191.81ZM-168.34 231.53H-165.57C-166.21 232.13 -166.89 232.68 -167.57 233.28L-173.57 239.04H-178.9V223.85C-178.172 226.079 -176.759 228.02 -174.863 229.399C-172.967 230.778 -170.684 231.524 -168.34 231.53Z" fill="white"/>
<path d="M-180 384.21C-200 387.8 -218.86 397.71 -233.92 407.99C-233.049 371.309 -223.815 335.311 -206.92 302.74C-200.728 297.778 -194.161 293.301 -187.28 289.35C-187.217 289.437 -187.135 289.508 -187.039 289.557C-186.943 289.606 -186.837 289.631 -186.73 289.63H-139.33C-139.241 289.63 -139.153 289.612 -139.071 289.578C-138.989 289.544 -138.915 289.494 -138.853 289.43C-138.79 289.367 -138.741 289.292 -138.708 289.209C-138.675 289.127 -138.659 289.039 -138.66 288.95V270.48C-137.66 270.29 -137.21 270.21 -137.21 270.21H-138.66V241.56C-138.659 241.471 -138.675 241.383 -138.708 241.301C-138.741 241.218 -138.79 241.143 -138.853 241.08C-138.915 241.016 -138.989 240.966 -139.071 240.932C-139.153 240.898 -139.241 240.88 -139.33 240.88H-160.27C-156.603 237.38 -152.823 233.983 -148.93 230.69H-127.93C-127.614 230.69 -127.312 230.565 -127.088 230.341C-126.865 230.118 -126.74 229.816 -126.74 229.5V213.83C-124.247 212.15 -121.72 210.507 -119.16 208.9V222.81C-119.16 222.989 -119.09 223.16 -118.964 223.287C-118.839 223.415 -118.669 223.487 -118.49 223.49H-82.3199C-82.1396 223.49 -81.9666 223.418 -81.8391 223.291C-81.7116 223.163 -81.6399 222.99 -81.6399 222.81V189.58C-53.0081 177.728 -22.3279 171.612 8.66008 171.58C88.7601 171.58 159.79 212.65 203.98 270.22H158.71C158.71 270.22 190.61 275.53 221.5 297.51C240.508 332.101 250.743 370.825 251.31 410.29C235.76 399.29 215.7 388.11 194.22 384.29C234.22 395.24 244.04 445.7 246.27 463.69C238.057 503.199 220.088 540.024 194 570.81C181.13 548.03 167.56 525.46 156.7 510.73C158.679 514.857 160.386 519.11 161.81 523.46C162.69 525.36 163.38 526.84 163.52 527.26C168.314 541.286 170.715 556.018 170.62 570.84C170.511 579.109 169.324 587.328 167.09 595.29C166.98 596.29 166.87 597.29 166.75 598.29L166.02 598.9C155.77 631.07 129.95 657.76 103.94 678.39C83.3401 694.74 61.6201 709.17 37.3601 719.55C26.0001 724.37 12.4801 731.45 2.55008 738.77C-40.8499 708.27 -93.3499 684.23 -134.1 642.17C-143.89 632.06 -152.68 620.76 -158.33 607.79C-162.79 597.54 -164.52 586.5 -165.14 575.39C-165.728 567.32 -165.841 559.223 -165.48 551.14C-165.48 542.4 -164.95 533.55 -162.19 525.34C-160.374 516.857 -157.575 508.615 -153.85 500.78C-163.92 514.43 -176.31 534.78 -188.31 555.85C-210.009 525.778 -224.49 491.112 -230.63 454.54C-226.54 432.48 -214.5 393.65 -180 384.21Z" fill="#12100B"/>
<path d="M9.82007 229.94H-12.9199V252.68H9.82007V229.94Z" fill="white"/>
<path d="M-36.35 577.05L2.89996 596.39L42.15 577.05L42.7799 558.85L54.0999 586.04L2.89996 614.11L-48.3 586.04L-37.01 559.63L-36.35 577.05Z" fill="#0A89CB"/>
<path d="M32.54 419.46H32L6.84 404C5.64771 403.237 4.26409 402.827 2.84866 402.816C1.43322 402.806 0.0435951 403.195 -1.16 403.94L-26.16 419.51H-26.74L-9.74 372.75C-9.74 372.75 -6.09 362.27 -23.07 353.39C-18 357.47 -16.13 360.22 -15.43 364.16C-19.57 360.75 -28.53 355.07 -44.55 352.16C-35.2143 355.381 -27.1846 361.561 -21.68 369.76L-125 343.5C-120.48 329.974 -111.823 318.211 -100.252 309.876C-88.6802 301.54 -74.7811 297.053 -60.52 297.05L2.88 333.66L66.41 297.05C81.0575 297.047 95.3143 301.775 107.059 310.528C118.803 319.281 127.407 331.593 131.59 345.63L152.15 414.56L131.46 437.76H130.97V410.12H131.46C131.46 410.12 108.46 396.74 70.97 397.67C97.28 408.33 117.53 441.44 87.19 489.95L3.19 436.78C3.19 436.78 8.89 415.44 30.41 426.11C41.79 438.2 41.27 456.68 41.27 456.69C41.27 456.7 53.08 448.02 41.77 414.55C34.35 400.88 27.99 387.78 24.56 377.55L70.66 397.55L66.78 387.92L131.48 345.64L28.31 369.7C33.8245 361.532 41.8437 355.376 51.16 352.16C33.67 355.32 24.61 361.81 21 365C21.63 360.86 23.64 357.61 28.89 353.38C11.89 362.27 15.57 372.68 15.57 372.68L32.54 419.46Z" fill="#0A89CB"/>
<path d="M21.3101 287.03V295.52L8.51007 300.42L-4.42993 295.36V287.03H21.3101Z" fill="#0A89CB"/>
<path d="M-21.81 302.01L2.92001 313.82L27.05 302.26L100.81 266.43L52.04 295.11L27.08 309.07L2.92001 323.89L-21.81 307.79L-42.3 295.11L-97.49 264.04L-21.81 302.01Z" fill="#0A89CB"/>
<path d="M34.14 279.67C38.2995 281.699 42.0173 284.53 45.08 288L31.75 294.1L34.14 279.67Z" fill="#0A89CB"/>
<path d="M2.8999 450.65L66.8999 487.83L56.6099 526.58L50.2599 486.84L45.9699 496.59L2.8999 474.12L-40.0501 496.53L-44.3201 486.84L-50.7201 526.92L-61.1001 487.83L2.8999 450.65Z" fill="#0A89CB"/>
<path d="M-59.3401 587.64L-56.4701 600.43L-52.5101 591.91L2.87988 626.53L58.1899 591.9L62.1599 600.43L65.0299 587.64L64.9999 587.59L85.7399 503.84L83.8799 600.5L2.75989 648.78L-78.3801 600.5L-80.3701 503.84L-59.3401 587.64Z" fill="#0A89CB"/>
<path d="M42.7801 558.85L54.1501 586.04L3.1001 614.05V596.34L42.2001 577.05L42.7801 558.85Z" fill="#0A89CB"/>
<path d="M56.6101 526.58L50.2601 486.84L46.0201 496.59L3.1001 474.18V450.71L66.9501 487.83L56.6101 526.58Z" fill="#0A89CB"/>
<path d="M58.2401 591.9L62.1801 600.43L65.0401 587.64L65.0101 587.59L85.7401 503.84L83.9301 600.5L3.1001 648.63V626.45L58.2401 591.9Z" fill="#0A89CB"/>
<path d="M34.52 262.81L25.4 297.49L3.49997 308.44L-18.4 297.49L-27.52 260.99L3.49997 282.89L34.52 262.81Z" fill="#0A89CB"/>
<path d="M7.1499 288.36L27.2199 271.94L23.5699 295.66L19.9299 284.71L7.1499 288.36Z" fill="#0A89CB"/>
</g>
</g>
</g>
<defs>
<linearGradient id="paint0_linear_23_288" x1="87.11" y1="463.43" x2="1192.34" y2="463.43" gradientUnits="userSpaceOnUse">
<stop/>
<stop offset="0.18" stop-color="#080808"/>
<stop offset="0.66" stop-color="#1B1B1B"/>
<stop offset="1" stop-color="#212121"/>
</linearGradient>
<clipPath id="clip0_23_288">
<rect width="655" height="927" fill="white"/>
</clipPath>
</defs>
</svg>
